<?xml version="1.0" encoding="UTF-8"?><svg id="Layer_1" xmlns="http://www.w3.org/2000/svg" viewBox="0 0 250 250"><defs><style>.cls-1{fill:#f4ae00;}.cls-1,.cls-2,.cls-3,.cls-4{stroke-width:0px;}.cls-2{fill:#f20058;}.cls-3{fill:#00c6f3;}.cls-4{fill:#00b878;}</style></defs><rect class="cls-4" x="149.818" y="-.182" width="50" height="50" rx="5" ry="5"/><rect class="cls-3" x="49.818" y="-.182" width="50" height="50" rx="5" ry="5"/><rect class="cls-4" x="149.818" y="49.818" width="50" height="50"/><rect class="cls-4" x="199.818" y="49.818" width="50" height="50" rx="5" ry="5"/><rect class="cls-4" x="149.818" y="99.818" width="50" height="50"/><rect class="cls-1" x="149.818" y="149.818" width="50" height="50"/><rect class="cls-1" x="149.818" y="199.818" width="50" height="50" rx="5" ry="5"/><rect class="cls-1" x="199.818" y="149.818" width="50" height="50" rx="5" ry="5"/><rect class="cls-1" x="99.818" y="149.818" width="50" height="50"/><rect class="cls-2" x="49.818" y="149.818" width="50" height="50"/><rect class="cls-2" x="-.182" y="149.818" width="50" height="50" rx="5" ry="5"/><rect class="cls-2" x="49.818" y="199.818" width="50" height="50" rx="5" ry="5"/><rect class="cls-2" x="49.818" y="99.818" width="50" height="50"/><rect class="cls-3" x="-.182" y="49.818" width="50" height="50" rx="5" ry="5"/><rect class="cls-3" x="49.818" y="49.818" width="50" height="50"/><rect class="cls-3" x="99.818" y="49.818" width="50" height="50"/><rect class="cls-4" x="171.818" y="49.818" width="50" height="50"/><rect class="cls-4" x="149.818" y="24.818" width="50" height="50"/><rect class="cls-1" x="149.818" y="176.818" width="50" height="50"/><rect class="cls-1" x="178.818" y="149.818" width="50" height="50"/><rect class="cls-2" x="49.818" y="176.818" width="50" height="50"/><rect class="cls-2" x="29.818" y="149.818" width="50" height="50"/><rect class="cls-3" x="25.818" y="49.818" width="50" height="50"/><rect class="cls-3" x="49.818" y="31.818" width="50" height="50"/></svg>